<svg xmlns="http://www.w3.org/2000/svg" xmlns:xlink="http://www.w3.org/1999/xlink" width="500pt" height="500pt" viewBox="-3 -3 506 506" version="1.1" transform="matrix(1, 0, 0, 1, 0, 0)"><g id="deeditor_bgCarrier" stroke-width="0">
    <rect id="dee_c_e" x="-3" y="-3" width="506" height="506" rx="0" fill="#ffffff" strokewidth="0"/>
  </g>
<g id="surface1">
<path style=" stroke:none;fill-rule:nonzero;fill:#000000;fill-opacity:1;" d="M 0 250 L 0 500 L 500 500 L 500 0 L 0 0 Z M 255 44 C 255.4375 44 256.492188 45.898438 257.328125 48.199219 C 260.097656 55.800781 266 76.628906 266 78.800781 C 266 81.898438 261.601562 84.609375 258.699219 83.296875 C 257.011719 82.53125 255.824219 80 253.601562 72.398438 C 252.019531 67 249.859375 59.816406 248.851562 56.601562 C 247.847656 53.398438 247 49.648438 247 48.398438 C 247 45.898438 250.824219 42.734375 252.898438 43.511719 C 253.601562 43.773438 254.570312 44 255 44 Z M 308.800781 48.566406 C 310 49.402344 311 51.054688 311 52.199219 C 311 54.347656 296.847656 82.101562 294.171875 85.199219 C 292.445312 87.199219 287.9375 87.539062 286.199219 85.800781 C 283.984375 83.585938 284.992188 80.5 292.984375 65 C 302.472656 46.601562 303.882812 45.136719 308.800781 48.566406 Z M 221.300781 81.375 C 233.355469 88.433594 241.101562 103.101562 242.496094 121.5 C 242.828125 125.898438 243.347656 132.085938 243.648438 135.25 L 244.199219 141 L 248.398438 138.121094 C 258.199219 131.402344 282.875 116.527344 288 114.246094 C 292.625 112.191406 294.75 111.855469 301.351562 112.148438 C 308.949219 112.488281 309.308594 112.621094 312.601562 116.25 C 315.53125 119.484375 316 120.699219 316 125.101562 C 316 127.898438 315.242188 131.777344 314.320312 133.699219 C 311.839844 138.871094 303.300781 147.640625 293.601562 154.972656 L 285.101562 161.398438 L 289.101562 164.808594 C 293.945312 168.933594 296.011719 172.699219 296.289062 177.898438 C 296.472656 181.398438 296.964844 182.109375 300.199219 183.5625 C 304.601562 185.539062 309.511719 190.441406 310.953125 194.300781 C 311.53125 195.84375 312 199.699219 312 202.898438 C 312 208.101562 312.269531 208.84375 314.601562 210.078125 C 318.710938 212.257812 322 218.800781 322 224.800781 C 322 231.058594 319.75 237 313.183594 248.101562 C 305.132812 261.699219 296.527344 270.128906 284.398438 276.296875 C 274.75 281.203125 268.5 282.464844 254.5 282.328125 C 242.699219 282.210938 240.621094 281.90625 232 279.027344 C 202.300781 269.109375 182.84375 248.101562 176.875 219.5 C 173.660156 204.101562 175.726562 190.660156 183.480469 176.5 C 194.546875 156.300781 201.675781 128.058594 199.136719 114.5 C 198.621094 111.757812 197.253906 105.300781 196.101562 100.199219 C 194 90.898438 194 90.898438 195.9375 86.5 C 198.800781 80 202.898438 77.730469 210.699219 78.324219 C 215 78.65625 218.246094 79.589844 221.300781 81.375 Z M 339.226562 81.601562 C 340.039062 83.398438 340.070312 84.722656 339.332031 85.898438 C 337.679688 88.53125 316.800781 100.90625 313.898438 100.976562 C 310.546875 101.054688 308.757812 98.898438 309.175781 95.300781 C 309.453125 92.90625 311.101562 91.527344 320.5 85.828125 C 333.101562 78.183594 337.261719 77.246094 339.226562 81.601562 Z M 150.898438 319.542969 C 160 322.234375 169 332.707031 169 340.601562 C 169 343.066406 168.898438 343.097656 161.800781 342.800781 C 155.5 342.535156 154.464844 342.226562 153.503906 340.300781 C 148.378906 330 134.585938 327.269531 126.800781 335.015625 C 124.585938 337.21875 124.007812 338.699219 124.03125 342.101562 C 124.089844 349.445312 127.5 352.253906 142.601562 357.386719 C 156 361.9375 161.578125 364.710938 165.5625 368.800781 C 174.171875 377.632812 172.5 395.398438 162.300781 403.5 C 150.898438 412.550781 126.515625 412.121094 115.5 402.675781 C 110.792969 398.640625 107.289062 392.101562 106.828125 386.5 L 106.5 382.5 L 113.101562 382.199219 C 119.601562 381.90625 119.71875 381.945312 120.992188 385 C 124.292969 392.910156 130.601562 397 139.5 397 C 152.199219 397 159.191406 389.070312 154.492188 380 C 152.527344 376.207031 148.300781 373.789062 137 369.996094 C 114.5 362.445312 109 357.023438 109 342.398438 C 109 336 112.859375 327.96875 117.699219 324.289062 C 125.523438 318.339844 139.898438 316.285156 150.898438 319.542969 Z M 262.75 335.75 L 263 352 L 267.800781 348.691406 C 279.398438 340.691406 293.492188 341.660156 301.359375 351 C 306.105469 356.636719 307 362.199219 307 386.101562 C 307 410.300781 307.425781 409 299.5 409 C 292.132812 409 292 408.601562 292 386.398438 C 292 365.199219 291.292969 361.535156 286.601562 358.445312 C 282.464844 355.722656 276.898438 355.488281 271.699219 357.816406 C 264.230469 361.160156 263.667969 363.101562 263.199219 387 C 262.929688 400.898438 262.414062 407.746094 261.601562 408.261719 C 259.898438 409.339844 252.101562 409.117188 249.898438 407.929688 C 248.070312 406.9375 248 405.351562 248 364.148438 C 248 331.449219 248.292969 321.105469 249.25 320.148438 C 250.042969 319.359375 252.699219 319.011719 256.5 319.199219 L 262.5 319.5 Z M 333.398438 319.59375 C 334.824219 320.132812 335 325 335 364 C 335 412.699219 335.585938 409 327.898438 409 C 325.699219 409 323.023438 408.527344 321.949219 407.949219 C 320.070312 406.9375 320 405.351562 320 364.148438 C 320 332.25 320.304688 321.09375 321.199219 320.199219 C 322.46875 318.933594 330.601562 318.527344 333.398438 319.59375 Z M 222.898438 346.417969 C 226.199219 348.089844 228.953125 350.464844 230.699219 353.148438 C 233.132812 356.886719 233.472656 358.5 234.113281 369.398438 C 235.199219 387.800781 235.113281 404.914062 233.929688 407.101562 C 233.15625 408.523438 231.800781 409 228.5 409 C 222.398438 409 221 408.234375 221 404.898438 C 221 401.300781 220.078125 401.183594 217.0625 404.398438 C 211.625 410.199219 197 411.613281 188.300781 407.183594 C 182.183594 404.066406 179.5 399.101562 179.5 390.898438 C 179.5 385.199219 179.882812 383.800781 182.300781 380.648438 C 183.835938 378.648438 186.230469 376.253906 187.601562 375.351562 C 191.574219 372.730469 200.800781 371 210.800781 371 L 220 371 L 220 367.601562 C 220 359.261719 214.898438 354.613281 206.5 355.296875 C 202.199219 355.644531 200.988281 356.28125 197.851562 359.851562 C 194.359375 363.820312 193.949219 364 188.449219 364 L 182.699219 364 L 183.242188 360 C 185.128906 346.03125 207.199219 338.472656 222.898438 346.417969 Z M 389.101562 345.335938 C 395 347.847656 398.714844 351.699219 400.933594 357.601562 C 402.785156 362.53125 403 365.351562 403 384.851562 C 403 400.449219 402.660156 406.941406 401.800781 407.800781 C 400.574219 409.027344 393.300781 409.417969 390.601562 408.402344 C 389.660156 408.050781 389 406.601562 389 404.898438 C 389 401.300781 388.074219 401.183594 385.050781 404.398438 C 378.78125 411.070312 362.101562 411.753906 353.601562 405.6875 C 347.921875 401.636719 345.367188 390.800781 348.421875 383.699219 C 349.199219 381.898438 351.070312 379.300781 352.699219 377.757812 C 357.609375 373.121094 362.398438 371.757812 375.699219 371.207031 L 388 370.699219 L 388 366.351562 C 388 363.050781 387.328125 361.253906 385.226562 358.898438 C 379.9375 352.992188 368.679688 354.199219 364.722656 361.101562 C 363.070312 363.980469 362.75 364.089844 356.75 363.800781 C 350.851562 363.515625 350.515625 363.367188 350.765625 361.101562 C 351.949219 350.339844 364.300781 342.433594 378.5 343.347656 C 382.398438 343.601562 387.09375 344.480469 389.101562 345.335938 "/>
<path style=" stroke:none;fill-rule:nonzero;fill:#000000;fill-opacity:1;" d="M 207.601562 89.898438 C 205.753906 91.941406 205.75 92.199219 207.496094 99.300781 C 209.871094 108.949219 210.582031 127.101562 208.96875 136.800781 C 207.074219 148.152344 202.746094 160.699219 195.273438 176.5 C 191.679688 184.101562 188.089844 192.710938 187.347656 195.5 C 182.925781 212.199219 189.378906 234.433594 202.929688 249.199219 C 213.554688 260.773438 226.699219 268.203125 242.199219 271.386719 C 252.398438 273.480469 259.066406 273.394531 268.300781 271.050781 C 286.496094 266.425781 296.679688 257.800781 307.421875 237.898438 C 312.226562 229 313.339844 223.046875 310.789062 219.898438 C 307.859375 216.292969 306.277344 217 300.953125 224.300781 C 298.035156 228.300781 294.65625 232.921875 293.351562 234.699219 C 290.339844 238.800781 287.511719 239.746094 285 237.488281 C 281.734375 234.558594 282.726562 231.699219 290.421875 221.898438 C 302.273438 206.800781 304.117188 201.949219 300 196.699219 C 295.210938 190.597656 290.160156 192.601562 277.796875 205.5 C 272.71875 210.800781 267.972656 215.996094 267.195312 217.101562 C 265.28125 219.824219 259.425781 219.699219 257.925781 216.898438 C 257.3125 215.753906 257.050781 213.800781 257.351562 212.601562 C 257.652344 211.382812 264.183594 203.851562 271.949219 195.75 C 279.71875 187.648438 286 180.386719 286 179.5 C 286 177 283.210938 172.203125 281.101562 171.070312 C 276.136719 168.410156 271.199219 171.128906 254.601562 185.671875 C 243.699219 195.222656 241.417969 196.578125 238.5 195.234375 C 235.300781 193.757812 234.421875 190.523438 236.402344 187.5 C 239.09375 183.386719 250.5 174.316406 281.601562 151.554688 C 301.199219 137.210938 307.855469 129.363281 304.980469 124 C 303.949219 122.078125 303.148438 121.851562 298.648438 122.199219 C 295.558594 122.441406 291.101562 123.824219 287.5 125.664062 C 278.296875 130.367188 255.300781 145.203125 237.699219 157.792969 C 221.199219 169.597656 218.867188 170.480469 217.03125 165.601562 C 215.820312 162.386719 217.199219 160.644531 226 154.300781 C 235.316406 147.582031 234.769531 149.898438 232.566406 126.5 C 230.925781 109.101562 230.101562 105.816406 225.753906 99.398438 C 219.449219 90.101562 211.289062 85.828125 207.601562 89.898438 "/>
<path style=" stroke:none;fill-rule:nonzero;fill:#000000;fill-opacity:1;" d="M 196.898438 383.898438 C 194.828125 385.972656 194 387.800781 194 390.300781 C 194 395.457031 197.601562 398 204.898438 398 C 214.199219 398 220 392.851562 220 384.601562 L 220 381 L 209.898438 381 C 200.101562 381 199.714844 381.085938 196.898438 383.898438 "/>
<path style=" stroke:none;fill-rule:nonzero;fill:#000000;fill-opacity:1;" d="M 364.933594 383.898438 C 361.175781 387.699219 361.011719 392.109375 364.5 395.601562 C 366.429688 397.527344 367.898438 398 372 398 C 381.800781 398 386.996094 394.054688 387.800781 386 L 388.300781 381 L 378.050781 381 C 368.050781 381 367.730469 381.070312 364.933594 383.898438 "/>
</g>
</svg>