<?xml version="1.0" encoding="UTF-8"?>
<svg xmlns="http://www.w3.org/2000/svg" xmlns:xlink="http://www.w3.org/1999/xlink" width="500pt" height="500pt" viewBox="0 0 500 500" version="1.1">
<g id="surface1">
<path style=" stroke:none;fill-rule:nonzero;fill:rgb(0%,0%,0%);fill-opacity:1;" d="M 249.199219 67.199219 C 248.546875 67.855469 248 69.398438 248 70.601562 C 248 74.398438 256.769531 103.253906 258.199219 104.160156 C 261.792969 106.4375 266 104.300781 266 100.199219 C 266 97.574219 258.445312 70.699219 256.894531 67.800781 C 255.820312 65.800781 250.976562 65.421875 249.199219 67.199219 "/>
<path style=" stroke:none;fill-rule:nonzero;fill:rgb(0%,0%,0%);fill-opacity:1;" d="M 292.601562 85.898438 C 287.871094 94.699219 284 102.753906 284 103.800781 C 284 106.386719 286 108 289.199219 108 C 292.480469 108 294.101562 105.699219 303.496094 87.699219 C 308.820312 77.5 309.386719 75.878906 308.5 73.351562 C 307.738281 71.179688 306.75 70.429688 304.351562 70.199219 C 301.257812 69.90625 301.039062 70.199219 292.601562 85.898438 "/>
<path style=" stroke:none;fill-rule:nonzero;fill:rgb(0%,0%,0%);fill-opacity:1;" d="M 206.5 100.371094 C 204.800781 101.121094 202.417969 102.871094 201.003906 104.398438 C 197.894531 107.765625 197.648438 114.5 200.3125 123.5 C 202.605469 131.25 202.777344 148 200.65625 157 C 198.359375 166.75 196.421875 172 189.035156 188.5 C 180.394531 207.800781 179.503906 211.132812 179.542969 224 C 179.585938 237.898438 182.246094 246.460938 190.421875 259 C 204.109375 279.996094 226.699219 293.046875 252.199219 294.691406 C 278.609375 296.390625 299.984375 283 313.640625 256.199219 C 320.878906 242 320.792969 231.105469 313.398438 225.210938 C 310.246094 222.695312 310 222.101562 310 217 C 310 209.699219 306.886719 204.96875 300 201.800781 C 295.5 199.730469 295 199.171875 295 196.199219 C 295 191.398438 292.515625 186.234375 288.398438 182.488281 L 284.898438 179.300781 L 292.699219 172.972656 C 310.199219 158.78125 314 153.773438 314 144.898438 C 314 138.601562 311.539062 134.8125 306 132.59375 C 295.039062 128.199219 284.199219 132.035156 258.5 149.394531 C 251.898438 153.851562 246.230469 157.636719 245.898438 157.800781 C 245.570312 157.964844 244.976562 153.898438 244.578125 148.800781 C 243.496094 134.800781 241.378906 125.199219 237.828125 118.199219 C 230.378906 103.5 216.828125 95.789062 206.5 100.371094 Z M 221 112.863281 C 225.085938 116.160156 230.597656 124.898438 232.121094 130.5 C 233.839844 136.8125 234.925781 146.800781 234.964844 156.699219 L 235 165.800781 L 230.699219 169.105469 C 223.199219 174.871094 219 179.355469 219 181.601562 C 219 184.300781 221.351562 186.386719 223.699219 185.769531 C 224.6875 185.511719 231.601562 180.847656 239 175.449219 C 254.898438 163.847656 278.796875 148.269531 286.5 144.492188 C 296.699219 139.484375 304 140.15625 304 146.101562 C 304 149.785156 297.199219 156.847656 283.398438 167.496094 C 267.101562 180.078125 244.515625 198.246094 240.699219 201.851562 C 236.800781 205.539062 235.824219 209.421875 238.199219 211.800781 C 240.617188 214.214844 243.898438 212.855469 251.601562 206.257812 C 264.300781 195.371094 274.433594 188 276.699219 188 C 279.898438 188 285 192.671875 285 195.601562 C 285 199.101562 282.699219 203.097656 279.199219 205.683594 C 277.550781 206.902344 272.128906 212.398438 267.152344 217.898438 C 257.472656 228.601562 256.179688 231.609375 260.101562 234.332031 C 263.238281 236.507812 265.054688 235.5 272.046875 227.699219 C 275.632812 223.699219 281.101562 218.121094 284.351562 215.148438 C 289.449219 210.484375 290.597656 209.878906 293.300781 210.402344 C 297.699219 211.253906 300 213.726562 300 217.601562 C 300 221.300781 290.601562 236.15625 284.601562 241.933594 C 280.300781 246.078125 279.972656 249.265625 283.601562 251.652344 C 286.007812 253.238281 286.199219 253.226562 288.800781 251.289062 C 291.257812 249.460938 299.183594 239.898438 303.128906 234 C 304.800781 231.5 304.800781 231.5 306.898438 233.425781 C 309.628906 235.925781 309.558594 240 306.660156 247 C 301.695312 259 291.765625 271.332031 282.199219 277.378906 C 266.546875 287.269531 242.300781 286.472656 222.300781 275.402344 C 210.957031 269.125 198.996094 256.101562 194.105469 244.699219 C 191.832031 239.398438 189 227.199219 189 222.699219 C 189 216.292969 192.753906 204.5 198.925781 191.5 C 202.34375 184.300781 206.707031 173.367188 208.699219 167 C 212.070312 156.238281 212.304688 154.601562 212.398438 141.5 C 212.476562 130.800781 212.09375 126.179688 210.78125 121.898438 C 208.722656 115.199219 208.535156 110.394531 210.300781 109.609375 C 212.652344 108.566406 217.5 110.039062 221 112.863281 "/>
<path style=" stroke:none;fill-rule:nonzero;fill:rgb(0%,0%,0%);fill-opacity:1;" d="M 318.648438 106.300781 C 312.648438 109.785156 307.371094 113.359375 306.839844 114.300781 C 305.472656 116.722656 306.699219 119.886719 309.5 121.15625 C 311.503906 122.066406 313.300781 121.335938 323.5 115.460938 C 336.300781 108.085938 338.640625 105.460938 335.507812 102 C 334.476562 100.855469 332.800781 100 331.601562 100 C 330.4375 100 324.648438 102.816406 318.648438 106.300781 "/>
<path style=" stroke:none;fill-rule:nonzero;fill:rgb(0%,0%,0%);fill-opacity:1;" d="M 131.898438 329.285156 C 127.101562 330.628906 122.90625 333.234375 119.324219 337.101562 C 110.945312 346.136719 112.699219 363.371094 122.699219 370.289062 C 126.785156 373.117188 136.800781 377.34375 142.199219 378.523438 C 147.5 379.683594 153.820312 382.722656 156.5 385.398438 C 160.785156 389.6875 159.300781 397.425781 153.5 401.015625 C 143.691406 407.085938 128.859375 402.800781 125.0625 392.800781 C 124.070312 390.183594 123.601562 390 117.898438 390 C 110.699219 390 110.101562 390.898438 112.511719 398.101562 C 116.328125 409.511719 127.199219 416 142.5 416 C 161.300781 416 173 406.601562 173 391.5 C 173 384.300781 170.320312 378.265625 165.5 374.605469 C 162.0625 371.996094 153.101562 368.199219 143.5 365.292969 C 132 361.8125 128 358.121094 128 351 C 128 343.351562 135.800781 338.796875 146 340.488281 C 151.03125 341.324219 154.46875 344 157.066406 349.101562 L 159.101562 353.101562 L 164.800781 352.800781 C 170.101562 352.519531 170.519531 352.3125 170.800781 349.851562 C 170.96875 348.367188 169.992188 345 168.585938 342.199219 C 164.179688 333.433594 156.300781 329.003906 144 328.382812 C 139.601562 328.15625 134.597656 328.53125 131.898438 329.285156 "/>
<path style=" stroke:none;fill-rule:nonzero;fill:rgb(0%,0%,0%);fill-opacity:1;" d="M 248.699219 329.601562 C 248.316406 329.984375 248 349.199219 248 372.199219 L 248 414.101562 L 260.5 413.5 L 261.03125 394 C 261.644531 371.5 262.347656 369.105469 269.300781 365.964844 C 276.601562 362.667969 283.835938 364.109375 287.542969 369.601562 C 289.28125 372.175781 289.554688 374.800781 290 393 L 290.5 413.5 L 302.5 413.5 L 302.808594 392.5 C 303.15625 368.898438 302.550781 365.144531 297.453125 359.199219 C 289.65625 350.109375 276 349.851562 265.300781 358.589844 L 261 362.101562 L 260.5 329.5 L 254.949219 329.199219 C 251.851562 329.03125 249.089844 329.210938 248.699219 329.601562 "/>
<path style=" stroke:none;fill-rule:nonzero;fill:rgb(0%,0%,0%);fill-opacity:1;" d="M 317.699219 329.601562 C 317.316406 329.984375 317 349.199219 317 372.199219 L 317 414.101562 L 329.5 413.5 L 329.5 329.5 L 323.949219 329.199219 C 320.851562 329.03125 318.089844 329.210938 317.699219 329.601562 "/>
<path style=" stroke:none;fill-rule:nonzero;fill:rgb(0%,0%,0%);fill-opacity:1;" d="M 200 352.902344 C 192.101562 355.4375 185.511719 361.574219 184.433594 367.398438 C 183.558594 372.152344 184.398438 373 190 373 C 194.398438 373 194.984375 372.699219 197.035156 369.398438 C 202.320312 360.878906 216.027344 361 219.605469 369.601562 C 220.433594 371.601562 220.96875 374.378906 220.800781 375.851562 L 220.5 378.5 L 207.5 379.039062 C 193 379.640625 188.035156 381.304688 184.082031 386.898438 C 181.65625 390.328125 180.480469 397.300781 181.453125 402.5 C 184.023438 416.300781 207.617188 420.816406 218.019531 409.5 L 220.5 406.800781 L 221 410.148438 L 221.5 413.5 L 233.5 413.5 L 233.75 392.699219 C 233.894531 380.800781 233.566406 370.273438 232.984375 368.101562 C 230.304688 358.0625 222.398438 352.628906 210 352.300781 C 205.898438 352.191406 201.367188 352.464844 200 352.902344 Z M 221 391.300781 C 221 399.042969 214 405 204.898438 405 C 200.199219 405 198.929688 404.597656 197 402.5 C 195.515625 400.886719 194.726562 398.898438 194.777344 396.898438 C 194.9375 390.554688 199.800781 388.082031 212.199219 388.035156 L 221 388 L 221 391.300781 "/>
<path style=" stroke:none;fill-rule:nonzero;fill:rgb(0%,0%,0%);fill-opacity:1;" d="M 358.101562 353.6875 C 350 356.558594 341.882812 367.65625 345.078125 371.5 C 346.351562 373.035156 353.699219 373.550781 355.5 372.230469 C 356.054688 371.824219 357.117188 370.300781 357.886719 368.800781 C 361.277344 362.199219 373.003906 361.105469 378.214844 366.898438 C 380.382812 369.3125 381 371 381 374.5 L 381 379 L 370.199219 379 C 363.5 379 357.464844 379.574219 354.300781 380.511719 C 338.300781 385.25 336.425781 406.648438 351.398438 413.636719 C 360.601562 417.925781 371.886719 416.210938 377.960938 409.601562 C 381.160156 406.113281 382 406.300781 382 410.5 L 382 414 L 388 414 C 393.5 414 394.050781 413.796875 394.601562 411.550781 C 394.929688 410.199219 395.042969 400 394.851562 388.800781 C 394.53125 370.398438 394.300781 368.125 392.355469 364.5 C 389.589844 359.34375 386.601562 356.59375 381 354.058594 C 375.496094 351.5625 364.601562 351.390625 358.101562 353.6875 Z M 381 391.5 C 381 399.53125 374.601562 405 365.199219 405 C 359 405 355 402.214844 355 397.898438 C 355 390.59375 359.398438 388.082031 372.300781 388.035156 L 381 388 L 381 391.5 "/>
</g>
</svg>
